<?xml version="1.0" encoding="UTF-8"?>
<svg width="24px" height="24px" viewBox="0 0 24 24" stroke-width="1.5" fill="none" xmlns="http://www.w3.org/2000/svg" color="currentColor">
    <path d="M12 15.5a4 4 0 014 4v.5H8v-.5a4 4 0 014-4z" stroke="currentColor" stroke-width="1.5" stroke-linecap="round" stroke-linejoin="round"></path>
    <path d="M9 7a2 2 0 100-4 2 2 0 000 4zM15 7a2 2 0 100-4 2 2 0 000 4zM5.5 12a2 2 0 100-4 2 2 0 000 4zM18.5 12a2 2 0 100-4 2 2 0 000 4z" fill="currentColor" stroke="currentColor" stroke-width="1.5"></path>
</svg>
